<svg width="30" height="30" viewBox="0 0 30 30" fill="none" xmlns="http://www.w3.org/2000/svg">
<path d="M24.0967 7.28358C22.4236 6.51589 20.6295 5.9503 18.7536 5.62636C18.7195 5.62011 18.6854 5.63573 18.6678 5.66698C18.437 6.07737 18.1814 6.61276 18.0024 7.03357C15.9848 6.73151 13.9775 6.73151 12.0013 7.03357C11.8223 6.60341 11.5574 6.07737 11.3256 5.66698C11.308 5.63677 11.2739 5.62115 11.2397 5.62636C9.3649 5.94926 7.57077 6.51486 5.89665 7.28358C5.88215 7.28983 5.86973 7.30025 5.86149 7.31378C2.4584 12.3979 1.52615 17.3571 1.98348 22.2548C1.98555 22.2788 1.999 22.3017 2.01762 22.3162C4.26288 23.9651 6.4378 24.9661 8.57234 25.6296C8.6065 25.6401 8.64269 25.6276 8.66443 25.5994C9.16936 24.9099 9.61945 24.1828 10.0054 23.4183C10.0281 23.3735 10.0064 23.3204 9.95985 23.3027C9.24593 23.0318 8.56613 22.7016 7.9122 22.3267C7.86048 22.2965 7.85634 22.2225 7.90392 22.1871C8.04153 22.084 8.17918 21.9767 8.31058 21.8683C8.33435 21.8486 8.36748 21.8444 8.39543 21.8569C12.6914 23.8183 17.3423 23.8183 21.5876 21.8569C21.6156 21.8433 21.6487 21.8475 21.6735 21.8673C21.8049 21.9756 21.9425 22.084 22.0812 22.1871C22.1288 22.2225 22.1257 22.2965 22.0739 22.3267C21.42 22.7089 20.7402 23.0318 20.0252 23.3016C19.9787 23.3193 19.958 23.3735 19.9808 23.4183C20.375 24.1818 20.8251 24.9088 21.3207 25.5984C21.3414 25.6276 21.3786 25.6401 21.4128 25.6296C23.5576 24.9661 25.7326 23.9651 27.9778 22.3162C27.9975 22.3017 28.0099 22.2798 28.012 22.2558C28.5593 16.5936 27.0952 11.6751 24.1309 7.31482C24.1236 7.30025 24.1112 7.28983 24.0967 7.28358ZM10.6469 19.2726C9.35351 19.2726 8.2878 18.0852 8.2878 16.6269C8.2878 15.1686 9.33285 13.9812 10.6469 13.9812C11.9713 13.9812 13.0267 15.1791 13.006 16.6269C13.006 18.0852 11.9609 19.2726 10.6469 19.2726ZM19.3693 19.2726C18.0759 19.2726 17.0102 18.0852 17.0102 16.6269C17.0102 15.1686 18.0552 13.9812 19.3693 13.9812C20.6937 13.9812 21.749 15.1791 21.7284 16.6269C21.7284 18.0852 20.6937 19.2726 19.3693 19.2726Z" fill="white"/>
</svg>
