<svg width="732" height="525" viewBox="0 0 732 525" fill="none" xmlns="http://www.w3.org/2000/svg">
<g clip-path="url(#clip0_529_14932)">
<path d="M87.9525 171.647C87.9944 155.679 88.1619 139.69 90.256 123.847L88.6855 135.525C90.2979 123.91 92.9993 112.525 97.5435 101.684L93.104 112.19C95.8683 105.807 99.1979 99.7375 103.428 94.1916L96.5593 103.086C100.538 98.0005 105.082 93.4381 110.171 89.4408L101.271 96.3053C106.339 92.4127 111.804 89.1479 117.689 86.6155L107.176 91.0523C112.098 89.0223 117.186 87.5782 122.463 86.8248L110.778 88.3944C115.092 87.8503 119.406 87.8084 123.72 88.3317L112.035 86.762C116.118 87.3271 120.034 88.3735 123.846 89.9431L113.333 85.5063C116.914 87.055 120.244 89.0014 123.385 91.3453L114.485 84.4809C118.254 87.3899 121.542 90.7593 124.453 94.5264L117.584 85.6319C121.039 90.2361 123.825 95.238 126.065 100.533L121.626 90.0268C124.558 97.1843 126.484 104.677 127.531 112.336L125.961 100.658C128.076 117.129 126.002 133.788 123.804 150.133L125.374 138.455C123.385 153.272 120.935 168.173 120.223 183.136C119.615 195.693 121.081 208.083 123.113 220.472C125.144 232.862 129.604 244.205 135.154 255.046C138.693 261.994 143.719 268.147 148.598 274.174C153.477 280.202 159.822 284.848 166.209 289.703C169.602 292.277 173.183 294.516 177.078 296.274C184.135 299.497 191.485 302.825 199.108 304.562C211.065 307.283 223.86 308.664 236.132 307.429C248.906 306.132 261.554 304.227 273.616 299.811C285.678 295.395 298.41 289.515 309.991 282.839C330.157 271.202 348.962 256.992 370.468 247.805L359.956 252.241C369.463 248.265 379.368 245.377 389.588 243.975L377.903 245.544C384.897 244.665 391.933 244.54 398.948 245.377L387.263 243.807C392.813 244.561 398.194 245.942 403.388 248.056L392.875 243.619C397.378 245.544 401.545 247.972 405.44 250.944L396.54 244.079C400.309 247.072 403.66 250.463 406.613 254.251L399.744 245.356C403.199 249.918 406.005 254.858 408.288 260.11L403.849 249.605C406.948 257.013 408.916 264.798 409.984 272.751L408.414 261.073C409.649 270.93 409.461 280.788 408.183 290.624L409.754 278.946C405.503 309.501 392.247 337.859 387.138 368.226C385.42 378.418 383.934 388.777 383.578 399.116C383.222 409.454 384.562 419.604 386.07 429.88C388.75 448.171 396.729 465.354 407.995 479.899C417.837 492.644 430.13 503.778 444.851 510.705C452.746 514.43 460.976 517.988 469.457 520.206C478.482 522.55 487.927 523.681 497.162 524.539C512.323 525.92 527.568 523.994 542.499 521.483C554.08 519.537 565.43 516.272 576.277 511.814C594.307 504.406 611.605 495.93 628.797 486.763C643.037 479.166 657.277 471.506 672.145 465.207L661.633 469.644C673.904 464.495 686.553 460.373 699.683 458.091C705.4 456.731 710.384 454.115 714.635 450.222C719.43 447.125 723.2 443.023 725.964 437.896C729.168 432.852 730.927 427.411 731.178 421.551C732.498 415.712 732.225 409.873 730.383 404.034C726.948 393.402 720.352 383.147 710.174 377.769L699.662 373.332C691.872 371.239 684.082 371.239 676.271 373.332C650.932 377.727 626.913 388.777 604.171 400.413C584.088 410.689 564.55 422.116 543.735 430.906L554.247 426.469C541.536 431.764 528.259 435.489 514.606 437.393L526.291 435.824C515.171 437.31 503.926 437.582 492.806 436.159L504.491 437.728C496.659 436.661 488.995 434.736 481.686 431.722L492.199 436.159C486.608 433.794 481.372 430.801 476.514 427.139L485.414 434.003C480.974 430.55 477.017 426.615 473.561 422.179L480.43 431.073C476.996 426.553 474.19 421.676 471.928 416.465L476.367 426.971C473.498 420.086 471.698 412.887 470.692 405.499L472.263 417.177C470.944 406.482 471.279 395.725 472.682 385.052L471.111 396.73C474.734 370.528 485.016 345.916 491.089 320.279C493.497 310.108 494.942 299.811 496.22 289.431C496.89 284.031 497.246 278.611 497.162 273.191C497.036 264.275 495.717 255.381 494.335 246.612C493.518 241.443 492.283 236.315 490.565 231.355C484.849 214.801 476.891 200.088 464.682 187.343C458.63 181.023 451.385 175.456 443.846 171.04C440.056 168.822 436.014 167.21 431.951 165.515C427.596 163.673 423.366 161.832 418.8 160.639C416.099 159.927 413.356 159.446 410.592 159.048C404.246 158.148 397.88 157.081 391.472 156.913C382.007 156.641 372.437 158.148 363.139 159.655C348.25 162.062 333.989 167.943 320.482 174.409C294.327 186.904 271.794 205.844 245.094 217.333L255.607 212.896C246.539 216.705 237.074 219.405 227.315 220.745L239 219.175C231.608 220.117 224.195 220.242 216.803 219.3L228.488 220.87C222.876 220.075 217.431 218.673 212.175 216.496L222.687 220.933C218.332 219.049 214.29 216.684 210.542 213.775L219.441 220.64C215.965 217.856 212.887 214.738 210.144 211.243L217.012 220.138C213.787 215.889 211.149 211.285 209.034 206.388L213.473 216.894C210.353 209.485 208.447 201.679 207.379 193.726L208.95 205.404C206.814 188.536 208.803 171.731 211.065 154.988L209.494 166.666C211.651 150.656 214.353 134.541 214.73 118.343C214.855 112.88 214.709 107.418 214.06 101.998C213.075 93.6893 212.133 85.2343 209.955 77.1141C207.777 68.994 204.448 61.5017 201.055 54.0303C199.129 49.7609 196.783 45.7218 194.019 41.9338C184.554 28.9374 173.455 16.7781 158.524 9.93454C143.593 3.09101 128.055 -1.38763 111.637 0.391274C103.554 1.27026 95.2819 2.14924 87.5547 4.86991C79.8274 7.59058 72.2258 10.7089 65.2105 14.7899C54.2374 21.1939 43.5575 29.5861 35.5161 39.5061C30.4065 45.8055 25.1503 52.2514 21.2343 59.4298C16.8786 67.3825 13.3814 75.9003 10.345 84.439C4.87933 99.8422 2.78523 116.48 1.29841 132.679C0.125713 145.612 0.0419484 158.65 6.62875e-05 171.647C-0.0208748 182.906 4.92122 194.773 12.8788 202.725C20.8364 210.678 33.0241 216.098 43.9763 215.596C54.9285 215.094 67.1371 211.348 75.0738 202.725C83.0104 194.103 87.9316 183.576 87.9525 171.647Z" fill="#F97320"/>
<path d="M367.742 171.886C367.742 186.183 356.159 197.772 341.871 197.772C327.583 197.772 316 186.183 316 171.886C316 157.589 327.583 146 341.871 146C356.159 146 367.742 157.589 367.742 171.886Z" stroke="white" stroke-width="2"/>
<circle cx="87" cy="461" r="20" fill="currentColor"/>
<ellipse cx="653" cy="131.011" rx="20" ry="20.0111" fill="currentColor"/>
</g>
<defs>
<clipPath id="clip0_529_14932">
<rect width="732" height="525" fill="currentColor"/>
</clipPath>
</defs>
</svg>
