<svg width="730" height="531" viewBox="0 0 730 531" fill="none" xmlns="http://www.w3.org/2000/svg">
<g clip-path="url(#clip0_529_14912)">
<path d="M726.587 452.26C719.382 441.1 703.611 435.315 691.637 443.107C680.056 450.627 667.895 457.176 655.275 462.756C635.892 470.633 615.659 476.162 594.965 479.173C589.208 479.854 583.452 480.296 577.661 480.024C585.342 470.531 593.688 461.481 601.676 452.26C610.498 442.086 619.321 431.913 628.143 421.757C646.077 401.086 664.029 380.399 681.963 359.729C689.185 351.41 692.37 338.736 685.966 328.801C679.681 319.07 668.508 314.289 657.114 317.079C591.423 333.088 528.133 361.448 472.745 400.236C457.144 411.158 442.344 423.101 427.322 434.788C412.112 446.442 396.307 457.449 378.781 465.308C371.287 468.166 363.572 470.293 355.669 471.62C350.185 472.164 344.666 472.283 339.165 471.943C354.664 454.625 371.917 438.939 390.226 424.581C435.735 390.079 486.592 363.744 537.313 337.834C564.376 324.003 591.474 310.206 617.873 295.133C645.924 279.108 672.8 261.415 698.263 241.51C711.19 231.405 723.316 218.254 727.489 201.922C730.334 190.762 729.346 178.479 723.214 168.51C717.287 158.847 707.715 151.634 696.662 148.861C680.516 144.829 664.165 148.895 648.649 153.539C635.382 157.503 622.335 162.232 609.544 167.54C555.741 189.929 506.962 221.078 458.694 253.402C411.21 285.198 363.793 317.505 311.846 341.713C305.868 344.503 299.839 347.157 293.776 349.76C256.255 365.258 217.235 377.065 177.363 384.857C173.327 385.639 169.29 386.371 165.237 387.085C174.366 378.426 183.938 370.226 193.85 362.434C239.478 327.848 290.727 302.006 341.652 276.266C397.874 247.873 453.67 218.594 502.346 178.139C530.483 154.764 555.026 127.816 576.843 98.5038C577.695 96.4794 578.564 94.4379 579.415 92.4134C580.488 89.0279 580.624 85.6255 579.875 82.24C579.16 76.8811 576.946 71.3521 572.841 67.5923C564.512 59.9537 551.909 57.606 541.877 63.5944C504.935 85.7105 467.397 106.823 429.314 126.881C391.402 146.836 352.944 165.771 314.009 183.634C292.992 193.28 271.839 202.586 250.549 211.602C218.989 224.855 187.14 237.41 155.052 249.285C183.87 228.019 213.13 207.332 242.663 187.053C286.179 157.163 330.258 128.105 374.387 99.1333C400.565 81.9508 426.725 64.7853 452.903 47.6027C462.066 41.5973 468.232 29.8588 464.638 18.7837C463.276 14.5817 461.061 10.7879 458.064 7.5215C454.13 3.23438 445.903 -0.49134 439.993 0.0530568C382.903 5.3269 326.732 18.1202 273.354 39.0965C220.386 59.9027 170.227 87.1566 124.889 121.607C98.6086 141.579 73.7592 163.151 50.9878 187.053C41.7736 196.733 40.6495 213.661 50.9878 223.137C60.9854 232.289 77.2678 233.463 87.1121 223.137C106.477 202.807 127.341 183.957 149.431 166.639C180.429 142.991 213.726 122.372 248.761 105.224C257.924 100.732 267.223 96.4964 276.608 92.4815C288.24 87.6669 300.026 83.2267 311.931 79.1437C293.929 91.0354 275.96 102.961 258.06 114.989C203.678 151.532 149.891 188.993 97.8081 228.751C67.0146 252.262 36.7151 276.42 7.30128 301.632C3.1285 305.205 0.9825 311.074 0.267166 316.28C-0.4652 321.724 0.233102 327.797 3.29882 332.544C9.34509 341.917 21.0119 347.634 32.1506 344.265C104.638 322.387 176.069 297.022 246.104 268.271C246.87 267.947 247.636 267.624 248.42 267.301C213.692 286.525 180.106 307.603 149.278 333.003C123.373 354.336 100.482 378.97 81.5938 406.735C70.949 422.369 84.9321 446.254 103.65 445.132C185.402 440.249 265.179 419.766 339.267 384.959C404.567 354.268 462.492 310.921 522.938 272.047C555.349 251.207 588.68 231.609 624.107 216.315C633.321 212.521 642.654 208.999 652.124 205.869C657.131 204.219 662.224 202.518 667.367 201.055C665.937 202.28 664.455 203.487 662.973 204.661C613.462 242.395 557.495 270.159 502.278 298.417C447.794 326.3 394.11 355.595 346.506 394.435C319.698 416.296 296.007 441.406 276.114 469.715C275.262 471.739 274.393 473.781 273.542 475.805C272.469 479.19 272.333 482.593 273.082 485.978C273.763 490.997 275.926 497.377 280.116 500.626C286.367 505.475 292.396 509.983 299.634 513.198C306.617 516.312 313.635 519.068 321.146 520.565C337.087 523.729 352.194 523.423 368.153 520.939C395.523 516.669 420.628 502.565 442.769 486.506C455.594 477.2 467.908 467.231 480.41 457.5C512.191 433.274 546.544 412.672 582.89 396.102C576.52 403.451 570.15 410.784 563.78 418.133C553.885 429.531 543.512 440.674 534.502 452.804C523.943 467.01 519.974 485.06 526.974 501.664C532.918 515.716 545.999 524.988 560.578 528.646C572.091 531.521 583.622 531.453 595.289 530.092C609.187 528.458 622.982 526.23 636.54 522.691C665.034 515.257 692.71 503.127 717.407 487.101C722.959 483.495 727.353 478.34 729.141 471.858C730.828 465.751 730.061 457.619 726.57 452.192L726.587 452.26Z" fill="#FBCD19"/>
<path d="M67.2975 482.829C67.2975 497.126 55.7141 508.715 41.4264 508.715C27.1387 508.715 15.5552 497.126 15.5552 482.829C15.5552 468.532 27.1387 456.943 41.4264 456.943C55.7141 456.943 67.2975 468.532 67.2975 482.829Z" stroke="white" stroke-width="2"/>
<ellipse cx="654.801" cy="92.9808" rx="26.8712" ry="26.8861" fill="currentColor"/>
</g>
<defs>
<clipPath id="clip0_529_14912">
<rect width="730" height="531" fill="currentColor"/>
</clipPath>
</defs>
</svg>
