<svg width="730" height="531" viewBox="0 0 730 531" fill="none" xmlns="http://www.w3.org/2000/svg">
<g clip-path="url(#clip0_529_14925)">
<path d="M16.7055 160.885C13.5443 133.393 13.7151 105.627 26.565 78.7999C41.0552 49.5155 69.8306 27.9959 103.613 26.5282C135.515 24.9241 164.427 44.5835 179.174 71.3764C190.127 89.6877 194.399 116.924 194.638 135.048C195.578 198.207 206.035 261.555 227.121 321.164C238.929 354.732 254.359 387.344 272.745 417.704C275.787 422.909 279.409 427.841 282.878 431.425C284.023 432.568 284.672 432.944 284.279 432.705C283.544 432.005 279.033 431.066 277.171 431.339C275.035 431.408 270.797 432.892 270.011 433.763C273.275 430.367 275.992 423.097 277.017 417.499C279.665 402.516 279.307 386.321 277.136 371.115C273.411 345.722 265.073 319.833 256.529 295.276C243.73 258.67 228.557 218.822 221.124 179.572C215.861 151.84 213.998 122.522 218.167 94.1077C220.85 74.8066 226.574 57.0926 237.51 40.1294C274.385 -16.5451 348.391 -11.4767 383.421 44.5323C392.528 58.7991 398.065 75.6086 402.217 90.8311C403.704 96.3603 435.281 209.897 437.622 218.464C440.134 227.731 442.39 235.41 444.765 241.315C447.243 247.083 449.55 252.288 454.18 255.906C454.898 256.435 455.257 256.623 455.069 256.64C454.881 256.606 454.3 256.674 453.992 256.64C453.821 256.64 453.651 256.81 453.497 256.742C452.83 256.981 452.472 257.1 452.677 257.118C452.762 257.22 453.001 256.964 453.309 256.896C468.329 246.11 461.135 217.048 458.008 200.221C449.105 160.697 440.972 117.982 460.588 79.3801C480.991 38.7813 531.262 13.7461 574.288 35.6412C591.461 43.918 605.029 60.079 614.427 75.3697C619.536 83.1516 623.603 91.0188 628.456 97.5037C631.173 101.122 632.403 102.47 635.086 104.552C637.922 106.207 642.827 105.866 644.997 102.982C646.364 101.446 647.303 99.0737 647.543 97.2136L648.688 89.756C655.574 50.5906 711.16 52.3995 715.671 91.7014C716.508 100.729 715.722 109.654 713.62 118.085C701.488 166.534 647.936 191.108 602.705 170.117C596.742 167.302 591.068 163.701 585.976 159.605C574.767 150.526 566.599 139.792 559.337 129.058C554.467 121.771 549.717 114.364 544.813 108.75C543.497 107.333 542.232 106.002 540.899 105.286C540.541 105.064 540.37 105.081 540.267 105.064C540.216 105.115 540.199 105.064 540.165 105.115C540.165 105.132 540.131 105.115 540.165 105.132C540.199 105.2 540.25 105.251 540.301 105.286C540.524 105.286 540.729 105.559 540.951 105.49C541.019 105.593 541.087 105.627 541.173 105.61C541.258 105.559 541.207 105.746 541.241 105.712C539.925 106.463 538.097 107.607 536.559 109.159C526.478 119.382 530.442 140.833 533.193 154.571C537.55 174.981 543.633 193.156 546.367 215.085C549.016 235.871 548.179 258.653 540.609 278.722C512.654 352.326 427.712 368.385 378.585 305.003C364.932 287.801 355.944 262.698 350.459 243.687C347.81 234.813 314.182 122.778 312.422 116.873C309.859 108.733 307.911 101.412 303.896 95.1316C303.69 94.7903 303.485 94.5684 303.297 94.3125C303.127 94.1247 303.127 94.1247 303.007 94.0053C302.665 93.664 302.238 93.3739 302.306 93.5274C302.358 93.5786 303.058 94.193 304.904 94.6196C309.158 95.7118 314.302 94.705 317.822 92.0939C318.727 91.4113 318.574 91.4284 318.112 92.2475C315.618 96.6846 314.319 102.026 313.806 107.282C309.534 141.447 319.377 175.476 330.21 207.935C349.485 264.149 375.612 322.427 378.602 383.368C379.542 405.861 378.226 429.292 371.87 451.238C363.275 479.669 346.443 506.069 319.548 521.206C273.24 545.798 226.233 525.899 197.611 486.444C166.375 441.34 143.785 391.287 126.664 339.459C107.081 278.484 97.9054 214.129 99.9046 150.134C100.298 141.806 101.067 123.597 99.9046 117.846C99.7337 116.31 99.392 115.03 99.0844 113.938C98.7939 112.914 98.5376 112.248 98.7427 112.129C98.9306 112.044 99.7167 112.351 100.981 112.692C102.246 113.05 103.937 112.982 104.723 112.692C105.561 112.402 105.595 111.958 104.997 111.89C104.399 111.805 103.271 112.044 102.058 112.573C99.8704 113.631 97.4953 115.081 96.0599 117.163C88.3535 128 86.5251 145.782 85.0897 159.929C83.3981 178.957 66.4131 192.968 47.3776 191.023C31.0761 189.367 18.6022 176.551 16.7567 160.936L16.7055 160.885Z" fill="#FEA4E2"/>
<path d="M241.742 265.886C241.742 280.183 230.159 291.772 215.871 291.772C201.583 291.772 190 280.183 190 265.886C190 251.589 201.583 240 215.871 240C230.159 240 241.742 251.589 241.742 265.886Z" stroke="white" stroke-width="2"/>
<path d="M567.742 175.886C567.742 190.183 556.159 201.772 541.871 201.772C527.583 201.772 516 190.183 516 175.886C516 161.589 527.583 150 541.871 150C556.159 150 567.742 161.589 567.742 175.886Z" stroke="white" stroke-width="2"/>
<ellipse cx="654.871" cy="315.886" rx="26.8712" ry="26.8861" fill="currentColor"/>
</g>
<defs>
<clipPath id="clip0_529_14925">
<rect width="730" height="531" fill="currentColor"/>
</clipPath>
</defs>
</svg>
