<svg width="772" height="531" viewBox="0 0 772 531" fill="none" xmlns="http://www.w3.org/2000/svg">
<g clip-path="url(#clip0_526_14869)">
<path d="M711.534 175.849C682.136 157.442 647.338 152.5 614.657 162.089C607.731 164.122 601 166.884 594.557 170.338C572.347 149.67 546.184 134.532 516.923 128.35C448.846 113.955 382.58 147.295 336.943 202.499C319.554 223.584 305.011 247.31 293.76 272.95C275.15 256.998 252.779 247.241 229.291 244.832C192.78 241.006 153.815 256.634 122.759 276.739C66.1654 313.789 24.8798 373.599 7.62663 443.53C3.38085 461.54 0.835631 479.985 0.0313634 498.571C-0.775945 515.522 14.1345 531.711 29.4569 530.95C46.0809 530.134 58.0093 516.718 58.8825 498.571C59.0472 495.09 59.245 491.609 59.558 488.128C59.6734 486.678 59.8381 485.227 59.9699 483.795C61.0244 476.906 62.1941 470.089 63.7593 463.309C65.3245 456.529 67.0545 449.893 69.2293 443.367C70.1409 440.478 71.1074 437.62 72.1289 434.791C72.2772 434.375 72.722 433.214 73.068 432.308C73.5623 431.111 74.1719 429.661 74.3037 429.298C79.6721 416.653 85.9935 404.524 93.2014 393.039C95.0137 390.157 96.9249 387.383 98.7866 384.537C95.4915 389.595 99.4621 383.685 100.83 381.854C105.146 376.149 109.683 370.656 114.439 365.374C118.634 360.733 122.995 356.285 127.52 352.031C128.855 350.762 130.239 349.529 131.606 348.296C131.359 348.514 132.512 347.462 133.254 346.791L133.896 346.211C133.682 346.411 133.517 346.574 133.336 346.719L133.6 346.501C135.527 344.978 137.439 343.437 139.399 341.933C149.867 334.001 160.942 327.086 172.499 321.265L172.96 321.048L175.349 320.014C178.414 318.709 181.495 317.512 184.608 316.388C192.22 313.633 199.914 311.947 207.674 309.952L208.268 309.789H208.679C210.656 309.662 212.617 309.409 214.594 309.3C218.03 309.109 221.472 309.109 224.908 309.3C226.243 309.3 227.626 309.463 228.977 309.608C229.653 309.753 231.251 310.079 231.68 310.206C235.502 311.294 239.209 312.654 242.998 313.832C244.448 314.702 245.964 315.428 247.414 316.28C250.017 317.839 252.543 319.513 254.993 321.301C255.915 321.99 256.822 322.716 257.728 323.441C258.222 323.876 258.831 324.42 259.112 324.71C261.896 327.629 264.746 330.366 267.349 333.448C268.997 335.424 270.645 337.509 272.292 339.594L272.902 340.428C268.869 361.743 267.242 383.524 268.058 405.277C268.964 428.229 271.93 453.719 291.124 467.388C315.475 484.81 347.388 468.567 355.56 439.088C361.738 416.789 355.148 390.447 349.349 368.655C345.933 355.568 341.496 342.83 336.086 330.584C336.712 328.372 337.355 326.16 338.03 323.966C338.953 320.993 339.941 318.038 340.963 315.119C341.539 313.433 342.166 311.783 342.759 310.097C342.858 309.844 342.989 309.554 343.154 309.191C348.651 296.152 354.988 283.562 362.118 271.518C363.946 268.527 365.857 265.626 367.736 262.689C367.999 262.272 368.592 261.42 368.971 260.876L369.845 259.661C374.238 253.739 378.829 248.034 383.618 242.547C387.869 237.713 392.301 233.096 396.914 228.696C399.188 226.503 401.527 224.436 403.85 222.315C405.663 220.901 407.442 219.432 409.255 218.036C414.428 214.06 419.76 210.374 425.252 206.977C427.845 205.382 430.464 203.859 433.111 202.409L437.609 200.052L438.565 199.544L439.586 199.146C445.118 196.836 450.754 194.846 456.474 193.181C459.077 192.438 461.697 191.767 464.333 191.205C465.815 190.879 467.315 190.607 468.814 190.298H468.913C474.795 189.863 480.578 189.319 486.46 189.464C489.013 189.464 491.551 189.664 494.104 189.881C494.549 189.881 495.884 189.881 496.988 190.008C497.352 190.147 497.727 190.25 498.108 190.317C503.401 191.296 508.647 192.567 513.826 194.124C516.594 195.012 519.345 195.937 522.064 197.079C523.382 197.586 524.667 198.167 525.952 198.692H526.083C530.845 201.647 535.969 203.986 540.599 207.086C543.125 208.742 545.607 210.482 548.046 212.307C548.672 212.761 549.298 213.25 549.907 213.722C544.804 222.187 540.529 231.224 537.155 240.68C522.854 280.565 526.677 326.595 540.137 365.972C552.955 403.5 573.089 450.473 612.63 459.629C629.534 463.527 648.679 461.17 663.062 449.948C680.23 436.568 689.209 417.315 690.346 394.182C691.45 371.465 683.278 348.187 677.166 326.777C671.052 304.902 663.858 283.411 655.616 262.399C650.202 248.68 643.754 235.484 636.339 222.949C637.476 222.714 638.629 222.478 639.749 222.188H641.759C644.676 221.989 647.608 221.934 650.541 222.025C652.007 222.025 653.474 222.152 654.94 222.261L657.84 222.641L663.392 223.874C665.896 224.527 668.368 225.288 670.806 226.158C673.162 227.01 679.769 230.528 673.986 227.282C676.918 228.932 679.851 230.473 682.685 232.359C684.893 233.809 686.919 235.477 689.078 237C683.229 232.884 690.017 238.051 691.631 239.755C693.856 242.094 695.882 244.596 697.941 247.098L698.189 247.406L697.596 246.445L698.32 247.587C698.727 248.166 699.102 248.771 699.441 249.4C699.902 250.144 700.38 250.887 700.825 251.648C702.258 254.114 703.626 256.634 704.878 259.208C705.669 260.84 707.728 266.116 707.547 265.318C709.401 270.808 710.899 276.436 712.028 282.16C712.539 284.807 713.214 293.437 712.803 286.058C712.984 289.448 713.33 292.802 713.412 296.192C713.495 299.582 713.412 302.973 713.28 306.363C713.149 308.847 712.111 315.736 712.77 312.219C711.775 318.27 710.416 324.242 708.7 330.094C708.321 331.345 707.876 332.578 707.481 333.72C706.048 336.856 704.664 339.975 703.082 343.02C695.454 357.742 699.49 379.098 713.643 387.329C727.795 395.559 745.754 391.426 753.909 375.708C788.261 309.789 773.45 215.607 711.534 175.849ZM59.6404 485.862C59.5415 486.587 59.4921 486.859 59.6404 485.862V485.862ZM299.279 419.418C299.609 422.862 298.983 420.832 299.279 419.418V419.418ZM578.888 244.759L579.053 244.977L579.58 245.702C578.081 243.526 578.312 243.871 578.921 244.705L578.888 244.759ZM622.763 395.668C622.763 395.505 623.373 395.777 624.032 396.158C623.598 396.043 623.182 395.859 622.796 395.614L622.763 395.668ZM625.234 396.901C626.305 397.59 626.882 398.079 625.234 396.901V396.901ZM630.144 396.955C630.134 396.914 630.134 396.87 630.144 396.829L631.034 396.031C630.961 396.385 630.833 396.723 630.655 397.028L630.144 396.955ZM628.974 396.955H629.436C629.156 397.119 628.958 397.046 629.007 396.829L628.974 396.955ZM630.259 397.191H630.622C630.507 397.137 630.408 397.173 630.292 397.064L630.259 397.191ZM631.413 396.049V395.886C631.314 397.354 631.182 398.696 631.413 395.886V395.705L631.1 395.958L630.869 396.14L630.16 396.865C630.151 396.805 630.151 396.743 630.16 396.683L629.617 397.064H629.024C629.219 396.692 629.497 396.38 629.831 396.158C628.101 396.339 626.42 396.593 627.837 396.937C627.017 396.84 626.192 396.792 625.366 396.792L624.328 396.484C623.601 395.864 622.804 395.352 621.956 394.961H621.774C620.588 393.71 619.336 392.532 618.183 391.335C617.029 390.139 615.909 388.489 614.723 387.111C614.669 387.061 614.62 387.007 614.575 386.948L613.85 385.661C610.267 379.545 606.968 373.234 603.964 366.752C602.201 362.89 600.537 358.974 598.923 355.022L598.642 354.333L598.445 353.789C597.539 351.269 596.649 348.749 595.825 346.211C593.307 338.47 591.232 330.562 589.614 322.534C589.169 320.431 588.774 318.328 588.411 316.225C588.411 315.79 587.983 313.578 587.769 312.309C587.67 311.475 587.571 310.496 587.554 310.496C587.291 307.287 587.077 304.06 586.978 300.833C586.879 297.606 586.978 294.017 586.978 290.626C586.978 288.669 587.159 286.729 587.324 284.789C587.324 284.299 587.571 282.541 587.703 281.417C588.082 279.477 588.807 275.597 589.004 274.636C589.68 271.554 590.487 268.527 591.377 265.572C592.794 268.231 594.161 270.926 595.479 273.657C598.994 280.909 602.212 288.36 605.134 296.011L605.941 298.295C606.683 300.362 607.424 302.429 608.149 304.514C609.599 308.683 610.999 312.877 612.35 317.095C617.754 333.938 622.45 351.07 627.014 368.22C628.15 372.553 629.32 376.904 630.309 381.31C630.754 383.377 631.199 385.48 631.512 387.583C631.512 388.072 631.512 388.634 631.512 389.395C631.512 390.701 631.512 391.97 631.512 393.239C631.512 393.239 631.512 393.239 631.512 393.583C631.512 393.928 631.512 393.837 631.512 393.982C631.512 393.747 631.512 393.565 631.512 393.438C631.512 393.674 631.512 393.892 631.512 394.127C631.512 394.254 631.512 394.508 631.512 394.816C632.484 393.964 633.324 393.62 631.512 395.324H631.693L631.479 395.469V395.632L631.792 395.342C632.067 395.36 632.336 395.441 632.582 395.578C632.582 395.578 632.187 395.686 631.462 395.759L631.413 396.049ZM631.528 387.419C631.396 385.969 631.528 384.319 631.528 387.419V387.419ZM637.476 222.732C638 222.506 638.561 222.401 639.123 222.424L637.476 222.732Z" fill="#3A5FE9"/>
<circle cx="99" cy="24" r="23" stroke="white" stroke-width="2"/>
<circle cx="471" cy="287.653" r="24" fill="currentColor"/>
</g>
<defs>
<clipPath id="clip0_526_14869">
<rect width="772" height="531" fill="currentColor"/>
</clipPath>
</defs>
</svg>
