<svg width="2031" height="262" viewBox="0 0 2031 262" fill="none" xmlns="http://www.w3.org/2000/svg">
<g clip-path="url(#clip0_545_15029)">
<path d="M1938.99 136.196C1902.99 104.706 1856.93 90.9494 1810.79 97.8963C1801.01 99.3697 1791.35 101.9 1781.93 105.451C1756.1 72.2223 1723.8 45.9336 1685.49 31.5372C1596.36 -1.97307 1499.97 31.5131 1427.03 99.5868C1399.23 125.595 1374.73 155.852 1354.3 189.429C1332.38 163.492 1304.12 145.463 1272.84 137.471C1224.25 124.936 1168.38 139.075 1122.29 161.023C1038.23 201.594 970.232 276.956 932.675 371.181C923.27 395.488 916.076 420.736 911.208 446.524C906.668 470.029 923.537 495.568 944.412 497.524C967.057 499.661 985.917 483.283 990.789 458.12C991.72 453.294 992.696 448.473 993.827 443.675C994.278 441.673 994.796 439.681 995.266 437.708C998.093 428.298 1001.06 419.012 1004.56 409.855C1008.05 400.698 1011.74 391.775 1016.01 383.093C1017.83 379.24 1019.72 375.44 1021.68 371.693C1021.96 371.14 1022.8 369.608 1023.45 368.41C1024.36 366.837 1025.48 364.933 1025.73 364.452C1035.57 347.857 1046.58 332.17 1058.67 317.558C1061.7 313.891 1064.85 310.395 1067.95 306.788C1062.46 313.2 1069.03 305.732 1071.26 303.445C1078.25 296.332 1085.51 289.557 1093.01 283.121C1099.63 277.468 1106.43 272.118 1113.42 267.071C1115.48 265.562 1117.6 264.114 1119.7 262.662C1119.32 262.917 1121.1 261.676 1122.24 260.886L1123.22 260.203C1122.89 260.439 1122.64 260.634 1122.36 260.801L1122.76 260.549C1125.68 258.803 1128.58 257.029 1131.53 255.314C1147.3 246.304 1163.69 238.833 1180.5 232.984L1181.17 232.771L1184.61 231.799C1189.02 230.581 1193.43 229.518 1197.86 228.562C1208.72 226.215 1219.47 225.377 1230.37 224.122L1231.2 224.011L1231.76 224.093C1234.46 224.305 1237.16 224.337 1239.86 224.575C1244.54 224.986 1249.19 225.664 1253.8 226.607C1255.61 226.87 1257.45 227.371 1259.24 227.839C1260.13 228.175 1262.22 228.945 1262.77 229.207C1267.72 231.479 1272.46 234.107 1277.34 236.499C1279.13 238 1281.03 239.311 1282.82 240.786C1286.02 243.476 1289.09 246.31 1292.04 249.29C1293.15 250.434 1294.23 251.625 1295.31 252.816C1295.89 253.52 1296.6 254.4 1296.92 254.86C1300.09 259.483 1303.39 263.867 1306.28 268.682C1308.11 271.766 1309.91 275.001 1311.71 278.236L1312.37 279.52C1302.58 308.482 1295.95 338.568 1292.63 369.097C1289.18 401.317 1288.01 437.486 1311.18 460.352C1340.57 489.472 1387.03 473.084 1404.07 433.541C1416.97 403.628 1413.41 365.555 1410 333.991C1408.05 315.047 1404.64 296.39 1399.81 278.228C1401.11 275.264 1402.43 272.302 1403.79 269.373C1405.64 265.404 1407.58 261.474 1409.55 257.6C1410.68 255.36 1411.86 253.18 1413 250.943C1413.19 250.609 1413.43 250.23 1413.72 249.756C1423.81 232.636 1434.94 216.309 1447.03 200.9C1450.11 197.084 1453.29 193.411 1456.42 189.681C1456.87 189.151 1457.84 188.079 1458.46 187.394L1459.89 185.87C1467.04 178.468 1474.41 171.409 1482 164.692C1488.73 158.781 1495.66 153.209 1502.8 147.976C1506.32 145.362 1509.9 142.938 1513.47 140.434C1516.21 138.817 1518.92 137.118 1521.65 135.526C1529.46 130.994 1537.42 126.899 1545.53 123.24C1549.36 121.523 1553.22 119.914 1557.09 118.41L1563.65 116.006L1565.05 115.486L1566.51 115.131C1574.46 112.997 1582.49 111.328 1590.56 110.132C1594.23 109.607 1597.91 109.187 1601.59 108.921C1603.66 108.758 1605.74 108.674 1607.83 108.539L1607.97 108.559C1616.01 109.11 1623.94 109.49 1631.87 110.852C1635.32 111.355 1638.71 112.133 1642.12 112.94C1642.72 113.028 1644.52 113.291 1645.99 113.686C1646.46 113.951 1646.94 114.169 1647.44 114.337C1654.4 116.748 1661.24 119.555 1667.92 122.749C1671.49 124.534 1675.02 126.367 1678.46 128.498C1680.14 129.466 1681.76 130.529 1683.39 131.516L1683.57 131.542C1689.41 136.606 1695.86 140.881 1701.49 146.121C1704.57 148.93 1707.57 151.849 1710.5 154.877C1711.25 155.633 1712 156.44 1712.73 157.218C1704.11 168.031 1696.49 179.804 1690 192.34C1662.55 245.203 1658.35 310.216 1668.54 367.84C1678.24 422.756 1695.91 492.3 1747.52 512.873C1769.59 521.645 1795.96 522.127 1817.69 509.295C1843.62 494 1859.68 468.891 1865.93 436.82C1872.04 405.325 1865.73 371.218 1861.82 340.123C1858 308.381 1852.64 276.961 1845.77 246.003C1841.24 225.785 1835.21 206.092 1827.73 187.132C1829.31 187.027 1830.92 186.925 1832.5 186.741L1835.21 187.137C1839.2 187.433 1843.17 187.935 1847.12 188.64C1849.1 188.929 1851.06 189.395 1853.02 189.836L1856.87 190.938L1864.12 193.754C1867.38 195.158 1870.56 196.708 1873.68 198.404C1876.7 200.057 1884.92 206.269 1877.76 200.599C1881.39 203.48 1885.04 206.209 1888.49 209.4C1891.18 211.86 1893.58 214.588 1896.19 217.139C1889.12 210.241 1897.24 218.792 1899.08 221.489C1901.61 225.192 1903.84 229.084 1906.12 232.983L1906.39 233.462L1905.78 232.003L1906.53 233.741C1906.96 234.628 1907.35 235.547 1907.68 236.492C1908.15 237.621 1908.65 238.753 1909.09 239.904C1910.53 243.628 1911.87 247.415 1913.04 251.256C1913.77 253.69 1915.48 261.461 1915.4 260.311C1916.79 268.341 1917.67 276.494 1918.04 284.707C1918.19 288.502 1917.35 300.683 1918.29 290.301C1917.84 295.069 1917.63 299.82 1917.05 304.569C1916.47 309.318 1915.67 314.034 1914.81 318.741C1914.12 322.183 1911.32 331.596 1912.92 326.816C1910.35 335.067 1907.29 343.136 1903.78 350.969C1903.02 352.64 1902.16 354.274 1901.4 355.79C1898.82 359.886 1896.32 363.967 1893.56 367.907C1880.25 386.955 1881.36 417.565 1898.82 431.844C1916.29 446.123 1941.41 443.891 1955.64 423.555C2015.5 338.3 2014.63 203.9 1938.99 136.196ZM994.4 440.528C993.996 441.891 994.118 441.521 994.4 440.528ZM1331.97 394.991C1331.28 396.906 1331.71 399.864 1331.97 394.991ZM1745.6 206.258L1745.78 206.594L1746.35 207.711C1744.76 204.378 1745.01 204.905 1745.66 206.189L1745.6 206.258ZM1774.23 425.578C1774.27 425.35 1775.04 425.85 1775.85 426.512C1775.29 426.265 1774.76 425.928 1774.29 425.509L1774.23 425.578ZM1777.33 427.786C1779.31 429.756 1778.63 428.959 1777.33 427.786ZM1783.95 428.83C1783.95 428.77 1783.96 428.709 1783.98 428.652L1785.35 427.714C1785.18 428.194 1784.93 428.64 1784.63 429.031L1783.95 428.83ZM1782.37 428.599L1783 428.69C1782.58 428.863 1782.33 428.722 1782.44 428.428L1782.37 428.599ZM1784.06 429.181L1784.55 429.253C1784.41 429.154 1784.27 429.185 1784.13 429.011L1784.06 429.181ZM1785.85 427.814L1785.89 427.586C1785 431.464 1785.45 429.617 1785.89 427.586L1785.92 427.333L1785.45 427.626L1785.1 427.834L1783.99 428.706C1783.99 428.621 1784.01 428.535 1784.03 428.453L1783.22 428.878L1782.42 428.761C1782.76 428.28 1783.2 427.899 1783.69 427.654C1781.32 427.567 1778.99 427.59 1780.84 428.35C1779.75 428.053 1778.64 427.822 1777.53 427.66L1776.19 427.026C1775.33 426.017 1774.35 425.145 1773.29 424.432L1773.04 424.396C1771.69 422.416 1770.24 420.524 1768.92 418.627C1767.61 416.729 1766.43 414.205 1765.1 412.048C1765.04 411.968 1764.99 411.882 1764.94 411.791L1764.22 409.851C1760.62 400.607 1757.44 391.147 1754.7 381.506C1753.1 375.767 1751.64 369.973 1750.27 364.137L1750.03 363.12L1749.87 362.322C1749.16 358.625 1748.47 354.932 1747.87 351.226C1746.04 339.923 1744.84 328.474 1744.29 316.949C1744.11 313.925 1744.01 310.911 1743.94 307.904C1744.03 307.297 1743.9 304.124 1743.87 302.311C1743.91 301.127 1743.97 299.741 1743.95 299.737C1744.25 295.206 1744.61 290.658 1745.14 286.134C1745.66 281.609 1746.52 276.618 1747.21 271.885C1747.61 269.151 1748.25 266.479 1748.87 263.803C1748.97 263.12 1749.66 260.714 1750.07 259.171C1750.97 256.537 1752.74 251.264 1753.21 249.961C1754.75 245.792 1756.45 241.724 1758.26 237.774C1759.63 241.765 1760.93 245.798 1762.16 249.871C1765.44 260.687 1768.27 271.723 1770.67 282.979L1771.3 286.327C1771.88 289.359 1772.46 292.39 1773.02 295.444C1774.13 301.55 1775.17 307.681 1776.14 313.836C1780.02 338.413 1782.88 363.256 1785.57 388.098C1786.22 394.37 1786.92 400.675 1787.36 407.02C1787.54 409.993 1787.71 413.017 1787.71 416.014C1787.61 416.698 1787.5 417.482 1787.34 418.545C1787.08 420.367 1786.82 422.139 1786.56 423.911C1786.56 423.911 1786.56 423.911 1786.49 424.392C1786.42 424.872 1786.44 424.746 1786.41 424.948C1786.46 424.619 1786.49 424.366 1786.52 424.189C1786.47 424.518 1786.43 424.822 1786.38 425.151C1786.35 425.328 1786.3 425.682 1786.24 426.113C1787.73 425.115 1788.93 424.799 1786.14 426.821L1786.38 426.857L1786.06 427.017L1786.03 427.245L1786.51 426.902C1786.88 426.982 1787.23 427.147 1787.53 427.387C1787.53 427.387 1786.97 427.461 1785.98 427.419L1785.85 427.814ZM1787.77 415.79C1788.4 411.462 1787.88 413.739 1787.77 415.79ZM1829.31 187.052C1830.07 186.84 1830.85 186.804 1831.6 186.947L1829.31 187.052Z" fill="#2C7E45"/>
<path d="M2.11157 257.202C58.3113 177.021 133.351 111.877 220.632 67.496C307.912 23.1148 404.759 0.85527 502.659 2.67887C544.512 1.88388 585.893 11.6178 623.003 30.9871C658.802 52.0598 686.478 90.7778 684.954 132.542C683.431 174.307 644.965 213.66 603.707 208.709C723.358 135.436 862.479 100.325 1002.57 108.043C1070.87 111.978 1144.88 130.004 1185.88 184.209C1226.89 238.415 1208.99 336.544 1141.96 350.889C1209.62 305.316 1278.55 259.613 1355.99 233.971C1433.43 208.328 1521.78 205.157 1594.01 243.113C1666.24 281.07 1715.88 366.503 1696.2 446.224" stroke="white" stroke-width="2" stroke-miterlimit="10"/>
</g>
<defs>
<clipPath id="clip0_545_15029">
<rect width="2031" height="262" fill="white"/>
</clipPath>
</defs>
</svg>
