<svg width="30" height="30" viewBox="0 0 30 30" fill="none" xmlns="http://www.w3.org/2000/svg">
<path fill-rule="evenodd" clip-rule="evenodd" d="M15.0012 2.50007C12.0373 2.50047 9.17033 3.55532 6.91299 5.47592C4.65566 7.39652 3.15526 10.0576 2.68019 12.9831C2.20511 15.9086 2.78636 18.9077 4.31996 21.4439C5.85355 23.9801 8.23945 25.888 11.0508 26.8262C11.675 26.9421 11.9426 26.5587 11.9426 26.2287C11.9426 25.8988 11.9426 25.1498 11.9426 24.1064C8.47377 24.8555 7.74256 22.43 7.74256 22.43C7.49864 21.6657 6.98524 21.016 6.29798 20.602C5.16549 19.8351 6.38715 19.844 6.38715 19.844C6.78272 19.8999 7.16029 20.0455 7.49102 20.2695C7.82175 20.4936 8.09689 20.7903 8.29543 21.137C8.64083 21.7565 9.21813 22.2135 9.90038 22.4075C10.5826 22.6015 11.314 22.5165 11.9336 22.1714C11.984 21.5387 12.2629 20.946 12.7184 20.5039C9.95403 20.1829 7.03811 19.1128 7.03811 14.3332C7.01789 13.0918 7.47792 11.8906 8.32218 10.9803C7.94005 9.90509 7.98473 8.72426 8.44702 7.68097C8.44702 7.68097 9.49034 7.34211 11.8801 8.95613C13.9235 8.39876 16.0788 8.39876 18.1222 8.95613C20.5031 7.34211 21.5464 7.68097 21.5464 7.68097C22.0087 8.72426 22.0534 9.90509 21.6712 10.9803C22.5155 11.8906 22.9755 13.0918 22.9553 14.3332C22.9553 19.1307 20.0394 20.1829 17.2572 20.495C17.5552 20.7971 17.7851 21.1595 17.9312 21.5579C18.0773 21.9563 18.1364 22.3814 18.1044 22.8045C18.1044 24.4721 18.1044 25.8186 18.1044 26.2287C18.1044 26.6389 18.3273 26.951 18.9961 26.8262C21.8112 25.8868 24.1995 23.9753 25.7329 21.4344C27.2662 18.8935 27.8443 15.8895 27.3634 12.961C26.8824 10.0325 25.374 7.37116 23.1086 5.45414C20.8431 3.53711 17.9688 2.48982 15.0012 2.50007Z" fill="white"/>
</svg>
