<svg width="1964" height="995" viewBox="0 0 1964 995" fill="none" xmlns="http://www.w3.org/2000/svg">
<g clip-path="url(#clip0_545_15018)">
<path d="M1230.51 106.247C1153.34 296.069 801.365 829.884 565.647 725.227C462.294 683.209 441.071 495.265 518.243 305.442C595.416 115.62 741.761 -4.1987 845.114 37.8198C888.347 55.3962 917.209 98.506 930.51 156.606M1395.15 661.953C1317.98 851.775 1211.83 987.935 1158.06 966.075C1104.29 944.214 1123.26 772.611 1200.43 582.789C1277.61 392.967 1383.76 256.807 1437.53 278.667C1491.3 300.528 1472.33 472.13 1395.15 661.953ZM1240.63 472.921C1131.68 625.119 1008.41 723.481 965.302 692.62C922.19 661.758 975.561 513.36 1084.51 361.162C1193.46 208.964 1316.73 110.602 1359.84 141.463C1402.95 172.325 1349.58 320.723 1240.63 472.921ZM1492.54 668.703C1415.37 858.525 1331 1003.54 1304.11 992.61C1277.22 981.677 1317.98 818.932 1395.15 629.11C1472.33 439.288 1556.69 294.269 1583.58 305.203C1610.47 316.136 1569.71 478.88 1492.54 668.703Z" stroke="currentColor" stroke-width="2" stroke-miterlimit="10"/>
<path d="M1810.17 115.585C1735.38 73.8907 1646.86 62.6948 1563.71 84.4158C1546.09 89.0207 1528.97 95.278 1512.58 103.101C1456.08 56.2857 1389.51 21.9956 1315.07 7.99213C1141.88 -24.6142 973.3 50.906 857.196 175.952C812.958 223.712 775.96 277.456 747.338 335.534C699.993 299.399 643.08 277.298 583.325 271.841C490.441 263.176 391.313 298.575 312.303 344.117C168.328 428.041 63.2952 563.52 19.4025 721.923C8.60103 762.72 2.12588 804.5 0.0797899 846.6C-1.97404 884.996 35.9588 921.668 74.9396 919.943C117.232 918.095 147.578 887.707 149.799 846.6C150.219 838.715 150.722 830.83 151.518 822.946C151.811 819.66 152.231 816.375 152.566 813.131C155.249 797.526 158.224 782.085 162.206 766.726C166.188 751.368 170.589 736.338 176.122 721.554C178.441 715.011 180.9 708.536 183.499 702.13C183.876 701.185 185.008 698.557 185.888 696.504C187.145 693.793 188.696 690.508 189.032 689.687C202.689 661.043 218.771 633.569 237.108 607.555C241.719 601.025 246.581 594.742 251.317 588.295C242.934 599.752 253.036 586.365 256.515 582.217C267.496 569.295 279.037 556.852 291.136 544.888C301.811 534.375 312.904 524.3 324.417 514.664C327.812 511.789 331.333 508.997 334.812 506.204C334.183 506.697 337.117 504.315 339.003 502.796L340.638 501.481C340.093 501.933 339.674 502.303 339.213 502.631L339.883 502.139C344.787 498.689 349.649 495.198 354.637 491.79C381.268 473.823 409.443 458.159 438.844 444.975L440.018 444.482L446.095 442.141C453.892 439.184 461.73 436.474 469.651 433.928C489.016 427.686 508.59 423.867 528.332 419.35L529.841 418.98H530.889C535.919 418.693 540.907 418.118 545.937 417.871C554.677 417.44 563.435 417.44 572.175 417.871C575.57 417.871 579.091 418.241 582.528 418.569C584.247 418.898 588.312 419.637 589.402 419.925C599.126 422.388 608.557 425.468 618.198 428.138C621.886 430.109 625.743 431.752 629.431 433.682C636.054 437.213 642.48 441.005 648.712 445.057C651.059 446.617 653.365 448.26 655.67 449.903C656.927 450.888 658.478 452.12 659.191 452.777C666.274 459.389 673.525 465.59 680.148 472.571C684.339 477.047 688.531 481.77 692.722 486.492L694.273 488.381C684.015 536.663 679.876 586 681.95 635.274C684.255 687.264 691.8 745.002 740.631 775.966C802.581 815.431 883.77 778.635 904.56 711.862C920.278 661.351 903.512 601.682 888.758 552.321C880.069 522.676 868.78 493.822 855.016 466.083C856.609 461.073 858.244 456.063 859.963 451.094C862.31 444.359 864.824 437.665 867.423 431.053C868.89 427.234 870.483 423.497 871.992 419.678C872.244 419.103 872.579 418.446 872.998 417.625C886.983 388.089 903.105 359.572 921.242 332.29C925.895 325.514 930.756 318.943 935.535 312.291C936.205 311.346 937.714 309.416 938.678 308.184L940.9 305.433C952.077 292.018 963.757 279.096 975.941 266.666C986.755 255.716 998.03 245.257 1009.77 235.292C1015.55 230.323 1021.5 225.642 1027.41 220.837C1032.02 217.634 1036.55 214.307 1041.16 211.145C1054.32 202.138 1067.89 193.788 1081.86 186.095C1088.45 182.481 1095.12 179.032 1101.85 175.746L1113.3 170.408L1115.73 169.258L1118.33 168.355C1132.4 163.124 1146.74 158.615 1161.29 154.844C1167.91 153.16 1174.58 151.641 1181.28 150.368C1185.05 149.629 1188.87 149.013 1192.68 148.314H1192.93C1207.9 147.329 1222.61 146.097 1237.57 146.425C1244.07 146.425 1250.52 146.877 1257.02 147.37C1258.15 147.37 1261.55 147.37 1264.36 147.657C1265.28 147.971 1266.24 148.205 1267.21 148.356C1280.67 150.575 1294.02 153.453 1307.19 156.979C1314.24 158.992 1321.24 161.086 1328.15 163.673C1331.5 164.823 1334.77 166.137 1338.04 167.328H1338.38C1350.49 174.022 1363.53 179.319 1375.31 186.341C1381.73 190.092 1388.05 194.035 1394.25 198.168C1395.84 199.195 1397.44 200.304 1398.99 201.372C1386 220.547 1375.13 241.017 1366.55 262.437C1330.16 352.782 1339.89 457.048 1374.13 546.243C1406.74 631.25 1457.96 737.652 1558.56 758.39C1601.56 767.219 1650.27 761.881 1686.86 736.461C1730.53 706.154 1753.38 662.542 1756.27 610.142C1759.08 558.686 1738.29 505.958 1722.74 457.459C1707.18 407.91 1688.88 359.229 1667.91 311.634C1654.14 280.558 1637.74 250.668 1618.87 222.274C1621.76 221.74 1624.7 221.206 1627.55 220.549H1632.66C1640.08 220.098 1647.54 219.975 1655 220.18C1658.73 220.18 1662.46 220.467 1666.19 220.714L1673.57 221.576L1687.7 224.369C1694.07 225.847 1700.35 227.572 1706.56 229.543C1712.55 231.473 1729.36 239.44 1714.65 232.089C1722.11 235.826 1729.57 239.317 1736.78 243.587C1742.4 246.873 1747.55 250.651 1753.04 254.1C1738.16 244.778 1755.43 256.482 1759.54 260.342C1765.2 265.64 1770.35 271.307 1775.59 276.974L1776.22 277.672L1774.71 275.496L1776.56 278.083C1777.59 279.393 1778.54 280.764 1779.41 282.189C1780.58 283.873 1781.8 285.557 1782.93 287.282C1786.57 292.867 1790.05 298.575 1793.24 304.406C1795.25 308.102 1800.49 320.052 1800.03 318.245C1804.75 330.681 1808.56 343.43 1811.43 356.396C1812.73 362.391 1814.45 381.939 1813.4 365.225C1813.86 372.904 1814.74 380.501 1814.95 388.181C1815.16 395.86 1814.95 403.539 1814.61 411.219C1814.28 416.845 1811.64 432.45 1813.32 424.483C1810.79 438.19 1807.33 451.717 1802.96 464.974C1802 467.807 1800.87 470.6 1799.86 473.187C1796.21 480.291 1792.69 487.355 1788.67 494.254C1769.26 527.599 1779.53 575.975 1815.54 594.619C1851.54 613.263 1897.23 603.9 1917.98 568.296C2005.37 418.98 1967.69 205.642 1810.17 115.585ZM151.728 817.812C151.476 819.455 151.35 820.071 151.728 817.812V817.812ZM761.379 667.306C762.217 675.108 760.624 670.509 761.379 667.306V667.306ZM1472.72 271.677L1473.13 272.169L1474.48 273.812C1470.66 268.884 1471.25 269.664 1472.8 271.553L1472.72 271.677ZM1584.33 613.509C1584.33 613.14 1585.89 613.756 1587.56 614.618C1586.46 614.357 1585.4 613.943 1584.42 613.386L1584.33 613.509ZM1590.62 616.302C1593.35 617.862 1594.81 618.971 1590.62 616.302V616.302ZM1603.11 616.425C1603.09 616.331 1603.09 616.232 1603.11 616.138L1605.38 614.331C1605.19 615.133 1604.87 615.898 1604.41 616.589L1603.11 616.425ZM1600.14 616.425H1601.31C1600.6 616.795 1600.09 616.63 1600.22 616.138L1600.14 616.425ZM1603.41 616.959H1604.33C1604.03 616.836 1603.78 616.918 1603.49 616.671L1603.41 616.959ZM1606.34 614.372V614.002C1606.09 617.328 1605.75 620.367 1606.34 614.002V613.592L1605.54 614.166L1604.96 614.577L1603.15 616.22C1603.13 616.084 1603.13 615.945 1603.15 615.809L1601.77 616.671H1600.26C1600.76 615.829 1601.47 615.123 1602.32 614.618C1597.92 615.029 1593.64 615.604 1597.24 616.384C1595.16 616.164 1593.06 616.055 1590.96 616.055L1588.32 615.357C1586.47 613.954 1584.44 612.794 1582.28 611.908H1581.82C1578.8 609.074 1575.62 606.405 1572.68 603.695C1569.75 600.984 1566.9 597.247 1563.88 594.126C1563.74 594.014 1563.62 593.89 1563.5 593.757L1561.66 590.841C1552.55 576.987 1544.15 562.692 1536.51 548.009C1532.02 539.262 1527.79 530.392 1523.68 521.44L1522.97 519.879L1522.47 518.647C1520.16 512.939 1517.9 507.231 1515.8 501.481C1509.4 483.946 1504.12 466.033 1500 447.849C1498.87 443.086 1497.86 438.322 1496.94 433.558C1496.94 432.573 1495.85 427.563 1495.31 424.688C1495.06 422.799 1494.8 420.582 1494.76 420.582C1494.09 413.313 1493.55 406.003 1493.3 398.693C1493.04 391.384 1493.3 383.253 1493.3 375.573C1493.3 371.138 1493.76 366.744 1494.18 362.35C1494.18 361.241 1494.8 357.258 1495.14 354.712C1496.1 350.318 1497.95 341.53 1498.45 339.353C1500.17 332.372 1502.22 325.514 1504.49 318.82C1508.09 324.843 1511.57 330.948 1514.92 337.136C1523.87 353.562 1532.05 370.44 1539.49 387.77L1541.54 392.944C1543.43 397.626 1545.31 402.307 1547.16 407.03C1550.84 416.475 1554.41 425.975 1557.84 435.53C1571.59 473.68 1583.54 512.487 1595.15 551.336C1598.04 561.15 1601.02 571.006 1603.53 580.985C1604.66 585.667 1605.8 590.43 1606.59 595.194C1606.59 596.303 1606.59 597.576 1606.59 599.301C1606.59 602.257 1606.59 605.132 1606.59 608.007C1606.59 608.007 1606.59 608.007 1606.59 608.787C1606.59 609.567 1606.59 609.362 1606.59 609.69C1606.59 609.156 1606.59 608.746 1606.59 608.458C1606.59 608.992 1606.59 609.485 1606.59 610.019C1606.59 610.306 1606.59 610.881 1606.59 611.579C1609.06 609.649 1611.2 608.869 1606.59 612.729H1607.05L1606.51 613.058V613.427L1607.3 612.77C1608 612.812 1608.69 612.994 1609.32 613.304C1609.32 613.304 1608.31 613.55 1606.47 613.715L1606.34 614.372ZM1606.63 594.824C1606.3 591.539 1606.63 587.802 1606.63 594.824V594.824ZM1621.76 221.781C1623.1 221.269 1624.52 221.032 1625.96 221.083L1621.76 221.781Z" fill="#FEA4E2"/>
</g>
<defs>
<clipPath id="clip0_545_15018">
<rect width="1964" height="995" fill="white"/>
</clipPath>
</defs>
</svg>
