<svg width="21" height="20" viewBox="0 0 21 20" fill="none" xmlns="http://www.w3.org/2000/svg">
<path d="M10.6261 6.24983C11.2014 6.24983 11.6678 6.7162 11.6678 7.2915C11.6678 7.86679 11.2014 8.33316 10.6261 8.33316C10.0508 8.33316 9.58447 7.86679 9.58447 7.2915C9.58447 6.7162 10.0508 6.24983 10.6261 6.24983Z" fill="white" fill-opacity="0.64"/>
<path d="M10.6667 9.1665C11.127 9.1665 11.5001 9.53959 11.5001 9.99983V12.9369L11.49 13.0491L11.4867 13.0676C11.416 13.4566 11.0763 13.7516 10.6667 13.7516C10.2065 13.7516 9.8334 13.3785 9.8334 12.9183L9.8334 9.98119L9.84346 9.86902L9.84681 9.85052C9.91742 9.46151 10.2572 9.1665 10.6667 9.1665Z" fill="white" fill-opacity="0.64"/>
<path fill-rule="evenodd" clip-rule="evenodd" d="M10.6668 2.9165C14.5788 2.9165 17.7502 6.08782 17.7502 9.99984C17.7502 13.9119 14.5788 17.0832 10.6668 17.0832C6.75481 17.0832 3.5835 13.9119 3.5835 9.99984C3.5835 6.08782 6.75481 2.9165 10.6668 2.9165ZM16.0835 9.99984C16.0835 7.0083 13.6584 4.58317 10.6668 4.58317C7.67529 4.58317 5.25016 7.00829 5.25016 9.99984C5.25016 12.9914 7.67529 15.4165 10.6668 15.4165C13.6584 15.4165 16.0835 12.9914 16.0835 9.99984Z" fill="white" fill-opacity="0.64"/>
</svg>
