<svg width="30" height="30" viewBox="0 0 30 30" fill="none" xmlns="http://www.w3.org/2000/svg">
<path fill-rule="evenodd" clip-rule="evenodd" d="M15.5127 5.44786C15.7306 5.83481 15.7005 6.31378 15.4359 6.67043C13.42 9.38678 13.6348 13.2495 16.1308 15.6519C18.1358 17.5818 21.0848 18.0957 23.6688 17.2998C24.088 17.1707 24.5439 17.297 24.837 17.6233C25.13 17.9496 25.2068 18.4164 25.0335 18.8193C23.4558 22.4892 19.6635 25.125 15.3506 25.125C9.62739 25.125 4.875 20.6115 4.875 15C4.875 9.64478 9.10784 5.37943 14.4273 4.87992C14.8695 4.8384 15.2947 5.0609 15.5127 5.44786ZM12.3853 7.63579C9.28039 8.79957 7.125 11.6641 7.125 15C7.125 19.2885 10.7882 22.875 15.3506 22.875C17.9064 22.875 20.2281 21.6955 21.7452 19.8979C19.1866 20.0132 16.5574 19.1855 14.5705 17.273C11.8913 14.6943 11.1941 10.8895 12.3853 7.63579Z" fill="black"/>
</svg>
