<svg width="30" height="30" viewBox="0 0 30 30" fill="none" xmlns="http://www.w3.org/2000/svg">
<path fill-rule="evenodd" clip-rule="evenodd" d="M15 2.93751C15.6213 2.93751 16.125 3.44119 16.125 4.06251V6.00001C16.125 6.62133 15.6213 7.12501 15 7.12501C14.3787 7.12501 13.875 6.62133 13.875 6.00001V4.06251C13.875 3.44119 14.3787 2.93751 15 2.93751ZM15 22.875C15.6213 22.875 16.125 23.3787 16.125 24V25.9375C16.125 26.5588 15.6213 27.0625 15 27.0625C14.3787 27.0625 13.875 26.5588 13.875 25.9375V24C13.875 23.3787 14.3787 22.875 15 22.875ZM15 8.87501C11.6173 8.87501 8.875 11.6173 8.875 15C8.875 18.3828 11.6173 21.125 15 21.125C18.3827 21.125 21.125 18.3828 21.125 15C21.125 11.6173 18.3827 8.87501 15 8.87501ZM11.125 15C11.125 12.8599 12.8599 11.125 15 11.125C17.1401 11.125 18.875 12.8599 18.875 15C18.875 17.1401 17.1401 18.875 15 18.875C12.8599 18.875 11.125 17.1401 11.125 15ZM9.29554 20.7045C9.73488 21.1438 9.73488 21.8561 9.29554 22.2955L8.05799 23.533C7.61865 23.9723 6.90634 23.9723 6.467 23.533C6.02766 23.0937 6.02766 22.3814 6.467 21.942L7.70455 20.7045C8.14389 20.2651 8.8562 20.2651 9.29554 20.7045ZM23.533 8.05803C23.9723 7.61871 23.9724 6.9064 23.533 6.46704C23.0937 6.02768 22.3814 6.02766 21.942 6.46698L20.7044 7.70453C20.265 8.14385 20.265 8.85616 20.7043 9.29552C21.1437 9.73487 21.856 9.7349 22.2953 9.29558L23.533 8.05803ZM2.9375 15C2.9375 14.3787 3.44118 13.875 4.0625 13.875H6C6.62132 13.875 7.125 14.3787 7.125 15C7.125 15.6213 6.62132 16.125 6 16.125H4.0625C3.44118 16.125 2.9375 15.6213 2.9375 15ZM24 13.875C23.3787 13.875 22.875 14.3787 22.875 15C22.875 15.6213 23.3787 16.125 24 16.125H25.9375C26.5588 16.125 27.0625 15.6213 27.0625 15C27.0625 14.3787 26.5588 13.875 25.9375 13.875H24ZM6.467 6.46701C6.90634 6.02767 7.61865 6.02767 8.05799 6.46701L9.29554 7.70456C9.73488 8.1439 9.73488 8.85621 9.29554 9.29555C8.8562 9.73489 8.14389 9.73489 7.70455 9.29555L6.467 8.058C6.02766 7.61866 6.02766 6.90635 6.467 6.46701ZM22.2953 20.7045C21.856 20.2651 21.1436 20.2652 20.7043 20.7045C20.265 21.1439 20.265 21.8562 20.7044 22.2955L21.9421 23.533C22.3814 23.9724 23.0937 23.9723 23.533 23.533C23.9724 23.0936 23.9723 22.3813 23.533 21.942L22.2953 20.7045Z" fill="white"/>
</svg>
