<svg width="30" height="30" viewBox="0 0 30 30" fill="none" xmlns="http://www.w3.org/2000/svg">
<path d="M10.7201 24.3778C12.492 24.389 14.2485 24.0482 15.8877 23.3752C17.5269 22.7023 19.0161 21.7106 20.2691 20.4576C21.522 19.2047 22.5137 17.7154 23.1867 16.0762C23.8596 14.437 24.2004 12.6806 24.1893 10.9086C24.1893 10.6988 24.1893 10.4995 24.1893 10.2897C25.1078 9.61679 25.9028 8.78984 26.539 7.84556C25.6741 8.22383 24.759 8.4747 23.8221 8.59035C24.8154 7.99848 25.5607 7.06685 25.9201 5.96785C24.9944 6.52323 23.9793 6.91366 22.92 7.12175C22.2066 6.36161 21.2625 5.85776 20.234 5.68817C19.2054 5.51858 18.1496 5.6927 17.2299 6.18358C16.3102 6.67446 15.578 7.45475 15.1465 8.40371C14.7149 9.35267 14.6081 10.4174 14.8427 11.4331C12.9608 11.3408 11.1195 10.8531 9.43858 10.0018C7.75771 9.15051 6.27498 7.95474 5.08695 6.49235C4.48789 7.53209 4.30631 8.76063 4.57898 9.92921C4.85165 11.0978 5.55819 12.1191 6.55555 12.7864C5.81979 12.758 5.10106 12.5567 4.45755 12.1989V12.2514C4.45101 13.338 4.81706 14.394 5.4947 15.2434C6.17234 16.0928 7.12062 16.6844 8.1815 16.9194C7.49717 17.1035 6.78034 17.1321 6.0835 17.0033C6.39063 17.93 6.97692 18.739 7.76195 19.3193C8.54699 19.8996 9.49232 20.2229 10.4683 20.2448C8.79959 21.588 6.72559 22.3274 4.58343 22.3428C4.20784 22.3319 3.83313 22.3004 3.461 22.2483C5.62924 23.6298 8.1492 24.3581 10.7201 24.3463" fill="white"/>
</svg>
